<?xml version="1.0" encoding="utf-8"?>
<!-- Generator: Adobe Illustrator 27.7.0, SVG Export Plug-In . SVG Version: 6.00 Build 0)  -->
<svg version="1.1" id="Layer_1" xmlns="http://www.w3.org/2000/svg" xmlns:xlink="http://www.w3.org/1999/xlink" x="0px" y="0px"
	 viewBox="0 0 3177.91 1055.11" style="enable-background:new 0 0 3177.91 1055.11;" xml:space="preserve">
<style type="text/css">
	.st0{fill:#FFFFFF;}
	.st1{fill:#FFCB05;}
	.st2{fill:#004688;stroke:#FFCB05;stroke-width:2;stroke-miterlimit:10;}
	.st3{fill:#004688;stroke:#FFFFFF;stroke-miterlimit:10;}
	.st4{fill:none;stroke:#FFCB05;stroke-width:2;stroke-miterlimit:10;}
	.st5{fill:#004688;}
	.st6{fill:#004688;stroke:#FFCB05;stroke-width:1.5;stroke-miterlimit:10;}
	.st7{fill:#0C1F41;}
</style>
<g>
	<path class="st0" d="M836.33,250.92h-0.05c0.5,27.73,2.39,472.88-357.79,653.53C106.31,718.82,117.96,254.53,118.12,249.59V30.27
		h718.12h0.08V250.92z"/>
	<path class="st1" d="M943.27,602.61c-9.29-0.6-45.07-0.82-115.11,21.09l-1.76,0.55l7.85,39.71l2.24-0.76
		c19.16-6.42,83.59-29.51,108.22-57.12l2.86-3.21L943.27,602.61z"/>
	<path class="st1" d="M120.14,664l7.81-39.55l-1.78-0.55c-77.56-24.3-112.11-21.86-115.83-21.51l-3.75,0.35l2.3,3.01
		c22,28.54,89.01,51.26,109.02,57.54L120.14,664z"/>
	<path class="st1" d="M143.67,727.44c-15.04-9.73-23.55-9.58-28.03-7.75c-4.25,1.73-5.9,5.45-6.52,8.25
		c-0.94,4.27-1.97,9.48-2.86,14.25l-0.72,3.92l3.63-1.61c3.48-1.55,7.31-1.83,10.82-0.82c28.94,8.37,57.9,21.88,88.52,41.33
		l2.94,1.87l0.27-3.48c0.45-6.2,1.21-16.72,2.22-31.13l0.22-2.97l-2.87,0.82C202.84,752.53,182.84,752.82,143.67,727.44"/>
	<path class="st1" d="M845.26,727.93c-0.62-2.79-2.25-6.5-6.52-8.25c-4.49-1.82-12.99-1.98-28.03,7.76
		c-39.16,25.36-59.17,25.61-67.61,23.5l-2.79-0.71l0.2,2.87c0.97,13.95,1.71,24.2,2.15,30.28l0.25,3.5l2.94-1.88
		c30.64-19.45,59.6-32.97,88.52-41.34c3.5-1.01,7.34-0.71,10.82,0.81l3.61,1.61l-0.71-3.9
		C847.22,737.48,846.21,732.27,845.26,727.93"/>
	<path class="st2" d="M827.32,617.94c-0.34-1.81-0.64-3.53-0.94-5.13c-0.45-3.39-0.45-3.39-0.91-5.95c-0.35-2.6-0.59-5.06-0.64-7.31
		c0-2,0-4.07,0.37-6.47c1.45-8.91,6.94-15.39,19.46-22.82c2.12-1.26,4.61-2.66,7.36-4.19c22.87-12.77,63.91-35.7,75.88-83.51
		c19.06,46.62,6.52,63.18-2.81,75.51c-4.64,6.12-9.03,11.92-8.17,19.7c0.62,5.68,1.53,13.66,7.14,19.38
		C905.18,598.56,873.75,603.47,827.32,617.94z"/>
	<path class="st3" d="M29.28,558.08c-9.33-12.34-21.87-28.89-2.81-75.51c11.97,47.83,53.01,70.74,75.9,83.51
		c2.74,1.53,5.23,2.92,7.34,4.18c13.14,7.8,18.47,14.61,19.58,24.22c0.15,2.39,0.15,4,0.15,6.45c-0.08,2-0.29,4.12-0.61,6.37
		c-0.17,2.49-0.64,3.61-0.92,5.97c-0.29,1.53-0.57,3.14-0.89,4.86c-46.97-14.66-78.12-19.66-96.54-21.18
		c5.45-5.7,6.34-13.58,6.96-19.18C38.3,569.99,33.91,564.19,29.28,558.08"/>
	<path class="st4" d="M29.28,558.08c-9.33-12.34-21.87-28.89-2.81-75.51c11.97,47.83,53.01,70.74,75.9,83.51
		c2.74,1.53,5.23,2.92,7.34,4.18c13.14,7.8,18.47,14.61,19.58,24.22c0.15,2.39,0.15,4,0.15,6.45c-0.08,2-0.29,4.12-0.61,6.37
		c-0.17,2.49-0.64,3.61-0.92,5.97c-0.29,1.53-0.57,3.14-0.89,4.86c-46.97-14.66-78.12-19.66-96.54-21.18
		c5.45-5.7,6.34-13.58,6.96-19.18C38.3,569.99,33.91,564.19,29.28,558.08z"/>
	<path class="st5" d="M65.1,743.41c-38.03-10.23-54.65-18.49-61.24-35.16l-2.15-7.14c-0.54-2.55-0.91-5.33-1.19-8.25l-0.42-6.54
		c-0.15-4.22-0.1-8.87,0.07-13.9l0.24-6.29c0.2-4.3,0.45-8.92,0.74-13.83l0.39-6.27c0.24-3.97,0.47-8.13,0.72-12.45l0.34-6.42
		c0.08-1.31,0.15-2.54,0.22-3.87c0.3-6.34,0.89-10.59,2-13.51c27.04,34,110.52,58.82,115.49,60.27c1.29,0.47,38.03,13.93,63.7,24.97
		c18.82,8.1,27.21,11.78,28.84,27.9l0.3,6.66c0,2.66-0.08,5.53-0.3,8.77c-0.02,0.08-0.02,0.15-0.02,0.22l-2.05,5.55
		c-6.18,2.24-24.24,4.22-63.96-21.51c-17.13-11.09-27.58-10.6-33.34-8.25c-5.13,2.1-8.65,6.47-9.95,12.34
		c-2.4,10.79-5.29,27.7-5.31,27.87c-0.02,0.07,0.02,0.13,0,0.2c-0.07,0.29-0.19,0.52-0.24,0.81l-3.5,18.96
		C86.26,747.8,65.15,743.41,65.1,743.41"/>
	<path class="st4" d="M65.1,743.41c-38.03-10.23-54.65-18.49-61.24-35.16l-2.15-7.14c-0.54-2.55-0.91-5.33-1.19-8.25l-0.42-6.54
		c-0.15-4.22-0.1-8.87,0.07-13.9l0.24-6.29c0.2-4.3,0.45-8.92,0.74-13.83l0.39-6.27c0.24-3.97,0.47-8.13,0.72-12.45l0.34-6.42
		c0.08-1.31,0.15-2.54,0.22-3.87c0.3-6.34,0.89-10.59,2-13.51c27.04,34,110.52,58.82,115.49,60.27c1.29,0.47,38.03,13.93,63.7,24.97
		c18.82,8.1,27.21,11.78,28.84,27.9l0.3,6.66c0,2.66-0.08,5.53-0.3,8.77c-0.02,0.08-0.02,0.15-0.02,0.22l-2.05,5.55
		c-6.18,2.24-24.24,4.22-63.96-21.51c-17.13-11.09-27.58-10.6-33.34-8.25c-5.13,2.1-8.65,6.47-9.95,12.34
		c-2.4,10.79-5.29,27.7-5.31,27.87c-0.02,0.07,0.02,0.13,0,0.2c-0.07,0.29-0.19,0.52-0.24,0.81l-3.5,18.96
		C86.26,747.8,65.15,743.41,65.1,743.41z"/>
	<path class="st2" d="M854.04,827.55c-56.84,26.86-105.9,66.77-153.32,105.38c-71.46,58.13-138.95,113.06-222.48,114.18h-2.05
		c-83.58-1.14-151.06-56.05-222.52-114.18c-47.44-38.6-96.5-78.52-153.34-105.38c-4.15-1.97-6.49-6.42-5.68-10.82L105.67,757
		c0.52-2.81,2.15-5.18,4.59-6.69c2.42-1.5,5.39-1.9,8.13-1.11c69.21,20.02,125.73,66.27,180.4,110.99
		c59.09,48.35,114.92,94.01,176.7,94.01h3.39c61.78,0,117.61-45.66,176.7-94.01c54.67-44.72,111.19-90.97,180.38-110.99
		c2.76-0.81,5.73-0.39,8.17,1.11c2.42,1.51,4.05,3.88,4.57,6.69l11.01,59.73C860.54,821.13,858.2,825.58,854.04,827.55"/>
	<path class="st6" d="M954.29,686.09l-0.42,6.55c-0.29,3.14-0.66,6.12-1.26,8.84l-2.22,7.08c-6.69,16.45-23.26,24.67-60.96,34.81
		c-0.29,0.07-21.58,5.29-29.93,28.87l-3.08-16.67c-0.1-0.49-0.29-0.92-0.42-1.39c-0.02-0.07,0.02-0.13,0-0.2
		c-0.1-0.67-2.72-16.49-5.13-27.28c-1.31-5.87-4.84-10.25-9.95-12.34c-5.78-2.37-16.23-2.84-33.36,8.25
		c-42.22,27.33-60.03,24.07-65.11,22l-0.89-6.03c0-0.08-0.02-0.13-0.02-0.22c-0.22-3.24-0.32-6.12-0.32-8.77l0.32-6.66
		c1.65-16.13,10.12-19.83,29.36-28.13c25.33-10.89,62.5-24.49,63.24-24.76c4.77-1.5,86.15-27.39,115.27-60.62
		c1.21,2.92,1.83,7.28,2.15,13.86c0.07,1.34,0.15,2.55,0.22,3.87l0.34,6.42c0.24,4.34,0.49,8.5,0.72,12.45l0.37,6.29
		c0.29,4.76,0.54,9.24,0.72,13.44l0.25,6.3C954.38,677.13,954.43,681.82,954.29,686.09"/>
	<path class="st4" d="M954.29,686.09l-0.42,6.55c-0.29,3.14-0.66,6.12-1.26,8.84l-2.22,7.08c-6.69,16.45-23.26,24.67-60.96,34.81
		c-0.29,0.07-21.58,5.29-29.93,28.87l-3.08-16.67c-0.1-0.49-0.29-0.92-0.42-1.39c-0.02-0.07,0.02-0.13,0-0.2
		c-0.1-0.67-2.72-16.49-5.13-27.28c-1.31-5.87-4.84-10.25-9.95-12.34c-5.78-2.37-16.23-2.84-33.36,8.25
		c-42.22,27.33-60.03,24.07-65.11,22l-0.89-6.03c0-0.08-0.02-0.13-0.02-0.22c-0.22-3.24-0.32-6.12-0.32-8.77l0.32-6.66
		c1.65-16.13,10.12-19.83,29.36-28.13c25.33-10.89,62.5-24.49,63.24-24.76c4.77-1.5,86.15-27.39,115.27-60.62
		c1.21,2.92,1.83,7.28,2.15,13.86c0.07,1.34,0.15,2.55,0.22,3.87l0.34,6.42c0.24,4.34,0.49,8.5,0.72,12.45l0.37,6.29
		c0.29,4.76,0.54,9.24,0.72,13.44l0.25,6.3C954.38,677.13,954.43,681.82,954.29,686.09z"/>
	<polygon class="st0" points="162.24,788.56 171.13,793.83 170.48,831.68 187.25,803.36 195.15,808.05 171.1,848.66 162.63,843.63 
		163.17,805.03 146.09,833.83 138.19,829.14 	"/>
	
		<rect x="170.95" y="830.62" transform="matrix(0.5283 -0.8491 0.8491 0.5283 -617.6498 559.3243)" class="st0" width="47.19" height="9.8"/>
	<path class="st0" d="M207.82,854.56c-0.92,1.97-1.31,3.65-1.14,5.03c0.29,2.52,2.1,4.87,5.41,7.06c1.98,1.29,3.73,2.15,5.26,2.52
		c2.87,0.72,5.06-0.03,6.52-2.25c0.86-1.29,0.94-2.69,0.27-4.15c-0.69-1.46-2.12-3.26-4.27-5.45l-3.65-3.75
		c-3.58-3.68-5.8-6.59-6.66-8.71c-1.46-3.56-0.92-7.28,1.61-11.16c2.32-3.53,5.56-5.6,9.7-6.22c4.13-0.64,8.71,0.71,13.75,4.02
		c4.2,2.76,7.08,6.22,8.59,10.37c1.53,4.17,0.99,8.39-1.63,12.67l-7.92-5.21c1.41-2.47,1.46-4.84,0.13-7.14
		c-0.87-1.53-2.3-2.94-4.25-4.22c-2.17-1.43-4.19-2.15-6.05-2.13c-1.87,0-3.29,0.76-4.3,2.3c-0.92,1.4-0.99,2.87-0.15,4.4
		c0.52,1.01,1.9,2.71,4.15,5.09l5.85,6.17c2.57,2.72,4.22,5.16,4.94,7.34c1.14,3.41,0.54,6.86-1.76,10.37
		c-2.37,3.61-5.73,5.68-10.08,6.24c-4.34,0.54-9.06-0.86-14.13-4.18c-5.19-3.41-8.5-7.28-9.93-11.58c-1.45-4.3-0.81-8.49,1.88-12.59
		L207.82,854.56z"/>
	
		<rect x="223.34" y="865.19" transform="matrix(0.5786 -0.8156 0.8156 0.5786 -605.5923 568.045)" class="st0" width="47.18" height="9.79"/>
	<path class="st0" d="M309.68,891.2c1.78,2.99,2.47,6.25,2.1,9.8c-0.3,2.84-1.13,5.48-2.47,7.93c-1.36,2.45-2.84,4.6-4.47,6.47
		c-4.13,4.72-8.59,7.88-13.36,9.51c-6.44,2.17-12.34,0.89-17.7-3.81l-15.29-13.39l31.07-35.49l15.29,13.39
		C307.04,887.57,308.63,889.42,309.68,891.2 M291.36,884.68l-20.29,23.16l6.86,6c3.5,3.08,7.46,3.5,11.87,1.24
		c2.4-1.23,4.76-3.16,7.06-5.76c3.16-3.61,5.02-6.89,5.58-9.81c0.55-2.92-0.84-5.87-4.22-8.82L291.36,884.68z"/>
	<path class="st0" d="M324.22,959.79c-5.09,0.49-10.18-1.48-15.31-5.87c-5.14-4.37-7.87-9.11-8.18-14.23
		c-0.71-6.52,1.7-12.99,7.19-19.45c5.63-6.57,11.65-9.95,18.1-10.12c5.09-0.49,10.2,1.46,15.33,5.85c5.13,4.39,7.85,9.13,8.17,14.23
		c0.81,6.39-1.6,12.86-7.21,19.43C336.79,956.08,330.77,959.47,324.22,959.79 M324.2,950.35c3.61-0.71,7.16-3.08,10.6-7.11
		c3.45-4.02,5.23-7.88,5.36-11.56c0.13-3.7-1.28-6.81-4.25-9.34c-2.96-2.54-6.27-3.46-9.92-2.79c-3.65,0.67-7.18,3.04-10.64,7.08
		c-3.45,4.03-5.23,7.92-5.33,11.61s1.33,6.81,4.3,9.36C317.3,950.13,320.59,951.04,324.2,950.35"/>
	<path class="st0" d="M387.58,951.98l11.93,7.68l-25.53,39.68l-7.73-4.97l17.26-26.84c0.5-0.77,1.21-1.85,2.12-3.23
		c0.92-1.38,1.61-2.45,2.1-3.21l-28.94,28.47l-8.07-5.19l13.97-38.1c-0.49,0.76-1.18,1.83-2.03,3.24c-0.89,1.39-1.58,2.49-2.08,3.26
		l-17.24,26.84l-7.73-4.97l25.53-39.68l12.05,7.76l-12.84,35.85L387.58,951.98z"/>
	<polygon class="st0" points="394.61,1008.15 385.65,1004.19 404.78,961.05 413.73,965.03 	"/>
	<polygon class="st0" points="418.92,968.12 428.94,970.64 439.04,1007.13 447.09,975.23 456.01,977.5 444.43,1023.25 
		434.87,1020.83 424.47,983.65 416.25,1016.12 407.36,1013.87 	"/>
	<path class="st0" d="M460.57,978.12l10.02-0.13l0.42,28.97c0.03,3.24,0.45,5.6,1.24,7.08c1.23,2.64,3.83,3.92,7.83,3.87
		c3.98-0.05,6.55-1.43,7.7-4.08c0.74-1.5,1.09-3.87,1.04-7.11l-0.4-28.97l10.02-0.13l0.4,28.99c0.08,5.01-0.66,8.92-2.15,11.75
		c-2.84,5.16-8.32,7.8-16.49,7.92c-8.15,0.1-13.73-2.37-16.72-7.46c-1.6-2.76-2.42-6.66-2.5-11.66L460.57,978.12z"/>
	<path class="st0" d="M518.32,1006.57c0.84,2.02,1.81,3.43,2.94,4.24c2.07,1.46,5.03,1.71,8.87,0.72c2.3-0.59,4.1-1.33,5.41-2.18
		c2.47-1.66,3.38-3.78,2.71-6.35c-0.39-1.51-1.36-2.5-2.91-2.99c-1.53-0.47-3.83-0.62-6.89-0.5l-5.23,0.19
		c-5.13,0.18-8.77-0.12-10.92-0.91c-3.61-1.33-6-4.22-7.16-8.71c-1.06-4.1-0.42-7.87,1.88-11.36c2.32-3.48,6.4-5.98,12.24-7.5
		c4.87-1.24,9.36-1.04,13.46,0.62c4.08,1.68,6.86,4.91,8.27,9.73l-9.18,2.35c-0.87-2.71-2.6-4.34-5.19-4.91
		c-1.71-0.37-3.71-0.27-5.98,0.32c-2.52,0.66-4.4,1.66-5.65,3.04c-1.26,1.38-1.65,2.96-1.19,4.74c0.42,1.63,1.48,2.66,3.16,3.09
		c1.09,0.29,3.28,0.4,6.57,0.32l8.5-0.18c3.71-0.07,6.64,0.35,8.76,1.28c3.28,1.46,5.43,4.22,6.49,8.29
		c1.08,4.18,0.35,8.07-2.17,11.65c-2.5,3.6-6.71,6.15-12.6,7.66c-6.02,1.55-11.09,1.41-15.24-0.42c-4.13-1.83-6.82-5.11-8.05-9.87
		L518.32,1006.57z"/>
	<polygon class="st0" points="557.42,959.08 586.78,942.64 590.81,949.87 570.01,961.53 575.32,970.99 593.55,960.78 597.57,967.94 
		579.32,978.14 588.98,995.4 580.44,1000.19 	"/>
	<path class="st0" d="M614.68,923.1c1.83-0.45,3.66-0.45,5.51-0.03c1.53,0.35,2.94,0.92,4.29,1.73c1.34,0.81,2.57,1.95,3.7,3.43
		c1.34,1.78,2.22,3.88,2.64,6.3c0.4,2.4-0.15,4.74-1.7,7.04c2.27-0.62,4.25-0.57,5.93,0.17c1.7,0.74,3.55,2.42,5.55,5.06l1.92,2.52
		c1.29,1.73,2.25,2.84,2.84,3.36c0.96,0.81,1.98,1.16,3.08,1.04l0.72,0.94l-8.67,6.57c-0.87-0.66-1.55-1.21-2.05-1.63
		c-0.99-0.91-1.93-1.9-2.77-2.99l-2.71-3.46c-1.83-2.37-3.46-3.65-4.87-3.85c-1.39-0.2-3.19,0.54-5.39,2.18l-7.66,5.82l11.16,14.76
		l-7.68,5.82l-28.49-37.63l18.02-13.61C610.62,924.73,612.85,923.55,614.68,923.1 M602.65,940.96l7.65,10.12l8.47-6.42
		c1.68-1.26,2.79-2.42,3.31-3.48c0.94-1.83,0.62-3.8-0.97-5.92c-1.73-2.29-3.61-3.26-5.63-2.96c-1.14,0.17-2.54,0.86-4.15,2.08
		L602.65,940.96z"/>
	<path class="st0" d="M625.71,912.16l7.41-6.74l19.5,21.44c2.18,2.4,4.05,3.9,5.63,4.49c2.66,1.14,5.46,0.39,8.42-2.3
		c2.94-2.67,3.97-5.39,3.06-8.15c-0.42-1.61-1.73-3.63-3.92-6.03l-19.48-21.43l7.41-6.74l19.49,21.46c3.38,3.7,5.43,7.13,6.15,10.23
		c1.31,5.75-1.06,11.36-7.11,16.84c-6.03,5.48-11.85,7.31-17.46,5.48c-3.03-1.03-6.24-3.38-9.6-7.09L625.71,912.16z"/>
	<path class="st0" d="M688.45,900.15c1.61,1.46,3.11,2.32,4.47,2.57c2.5,0.45,5.28-0.57,8.34-3.11c1.83-1.51,3.14-2.94,3.95-4.29
		c1.55-2.55,1.46-4.86-0.24-6.89c-0.99-1.21-2.3-1.7-3.9-1.48c-1.6,0.23-3.73,1.06-6.45,2.47l-4.65,2.4
		c-4.57,2.35-7.98,3.61-10.27,3.82c-3.83,0.35-7.24-1.26-10.18-4.82c-2.71-3.26-3.73-6.94-3.13-11.09
		c0.61-4.13,3.24-8.12,7.87-11.97c3.88-3.21,8.03-4.94,12.45-5.18c4.42-0.24,8.29,1.53,11.61,5.28l-7.29,6.03
		c-1.93-2.07-4.2-2.81-6.79-2.22c-1.71,0.4-3.46,1.34-5.28,2.82c-2,1.66-3.28,3.39-3.82,5.18c-0.55,1.76-0.24,3.38,0.94,4.77
		c1.08,1.31,2.47,1.8,4.18,1.46c1.11-0.2,3.13-1.04,6.07-2.5l7.61-3.78c3.34-1.66,6.18-2.5,8.49-2.57c3.56-0.08,6.71,1.5,9.4,4.74
		c2.74,3.31,3.73,7.13,2.99,11.46c-0.74,4.32-3.46,8.4-8.13,12.3c-4.79,3.95-9.46,5.98-13.98,6.1c-4.54,0.12-8.35-1.73-11.5-5.51
		L688.45,900.15z"/>
	<polygon class="st0" points="724.25,830.19 729.33,836.83 718.12,845.4 741.7,876.24 733.82,882.27 710.24,851.43 698.98,860.05 
		693.9,853.41 	"/>
	<path class="st0" d="M755.91,809.53c1.85-0.37,3.68-0.3,5.5,0.2c1.51,0.42,2.91,1.06,4.22,1.92c1.29,0.86,2.49,2.07,3.53,3.58
		c1.28,1.85,2.07,3.98,2.35,6.4c0.32,2.44-0.35,4.74-1.98,6.97c2.29-0.52,4.27-0.39,5.93,0.44c1.66,0.81,3.43,2.57,5.31,5.29
		l1.8,2.6c1.23,1.78,2.12,2.92,2.71,3.46c0.91,0.86,1.92,1.24,3.03,1.18l0.67,0.97l-8.94,6.18c-0.84-0.69-1.5-1.26-1.97-1.71
		c-0.98-0.94-1.85-1.98-2.66-3.11l-2.55-3.56c-1.73-2.47-3.31-3.81-4.71-4.08c-1.4-0.24-3.21,0.4-5.46,1.97l-7.93,5.48l10.52,15.23
		l-7.92,5.46l-26.82-38.81l18.55-12.84C751.78,810.98,754.05,809.9,755.91,809.53 M743.1,826.86l7.21,10.44l8.72-6.03
		c1.73-1.21,2.89-2.32,3.48-3.34c1.01-1.78,0.77-3.76-0.74-5.95c-1.61-2.35-3.45-3.43-5.5-3.21c-1.14,0.12-2.55,0.76-4.22,1.92
		L743.1,826.86z"/>
	<path class="st0" d="M783.09,790.8l9.58-5.73l38.5,31.97l-9.19,5.48l-7.63-6.72l-14.92,8.89l2.22,9.97l-8.86,5.29L783.09,790.8z
		 M797.56,816.32l10.39-6.18l-14.64-12.89L797.56,816.32z"/>
	<path class="st7" d="M594.71,531.5V394.3h-43.63v-97.76h-41.9v15.18h-16.25v-15.18H461.5v15.18h-16.27v-15.18H403v97.76h-43.33
		V531.5h-45.85v220.68h326.73V531.5H594.71z M540.46,682.32c-1.82-5.85-4.07-11.81-6.89-17.8h33.44v17.8H540.46z M544.09,686.16
		v10.55c-0.69-3.45-1.53-6.96-2.52-10.55H544.09z M475.89,620.93c-1.5-0.89-2-2.84-1.13-4.37c0.87-1.51,2.79-2.05,4.27-1.14
		c59.9,35.97,59.86,98.27,59.85,128.2v1.36h-6.25v-1.36C532.66,712.66,532.67,655.05,475.89,620.93 M465.1,627.69
		c-1.48-0.91-1.97-2.87-1.08-4.39c0.87-1.51,2.79-2.02,4.29-1.11c58.22,35.75,58.18,93.75,58.18,121.63v1.16h-6.25v-1.16
		C520.25,717.11,520.27,661.57,465.1,627.69 M387.35,682.32v-17.8h33.43c-2.84,6-5.08,11.97-6.89,17.8H387.35z M412.8,686.16
		c-0.98,3.46-1.83,6.87-2.5,10.18v-10.18H412.8z M320.88,686.16h39.81v17.86h-39.81V686.16z M337.77,725.65h-16.89v-17.8h16.89
		V725.65z M360.7,617.37h-39.81V599.5h39.81V617.37z M320.88,577.86h16.89v17.8h-16.89V577.86z M429.68,335.37h-19.63v-16.34h19.63
		V335.37z M410.06,303.76h28.13v11.58h-28.13V303.76z M410.36,339.05h42.25v16.4h-42.25V339.05z M433.28,359.14h42.25v16.35h-42.25
		V359.14z M570.77,664.53h42.1v17.8h-42.1V664.53z M589.95,704.02h-42.1v-17.86h42.1V704.02z M589.95,660.69h-42.1v-17.86h42.1
		V660.69z M383.62,682.32h-42.1v-17.8h42.1V682.32z M406.54,704.02h-42.1v-17.86h42.1V704.02z M364.44,642.83h42.1v17.86h-42.1
		V642.83z M524.91,577.86h42.1v17.8h-42.1V577.86z M544.09,617.37h-42.1V599.5h42.1V617.37z M544.09,574.02h-42.1v-16.81h24.32
		h17.78V574.02z M454.89,537.42h44.27v15.95h-44.27V537.42z M498.24,574.02h-42.1V557.2h42.1V574.02z M520.52,549.79h-15.56v-9.38
		h15.56V549.79z M521.36,531.5h-0.84v5.19h-15.56v-5.19h-25.81v-11.43h42.22V531.5z M567.23,531.5h-42.22v-11.43h42.22V531.5z
		 M544.29,516.36h-42.22v-16.65h42.22V516.36z M479.15,479.39h42.22v16.6h-42.22V479.39z M525.01,479.39h42.22v16.6h-42.22V479.39z
		 M544.29,475.69h-42.22v-16.66h42.22V475.69z M521.36,455.32h-42.22v-16.6h42.22V455.32z M498.44,475.69h-42.22v-16.66h42.22
		V475.69z M475.52,495.99H433.3v-16.6h42.22V495.99z M456.22,499.71h42.22v16.65h-42.22V499.71z M475.52,520.08v11.43H449.1v5.19
		h-15.8v-6.5v-10.12H475.52z M449.1,549.79h-15.9v-9.38h15.9V549.79z M526.3,537.42h41.09v15.95H526.3V537.42z M570.84,531.5v-1.31
		v-10.12h16.81v10.12v4.27v2.24h-14.45v-5.19H570.84z M547.92,499.71h39.73v16.65h-39.73V499.71z M570.84,479.39h16.81v16.6h-16.81
		V479.39z M547.92,459.04h39.73v16.66h-39.73V459.04z M570.84,438.72h16.81v16.6h-16.81V438.72z M547.92,419.41h39.73V435h-39.73
		V419.41z M567.23,455.32h-42.22v-16.6h42.22V455.32z M544.29,435h-42.22v-15.6h11.09h1.61h27.51h1.41h0.59V435z M514.78,415.71
		h-23.24v-15.48h23.24V415.71z M536.49,412.15h-15.93V399.1h15.93V412.15z M485.75,412.15h-16.54V399.1h16.54V412.15z
		 M463.43,415.71H439.9v-15.48h23.53V415.71z M456.22,419.41h35.31h1.16h5.75V435h-42.22V419.41z M475.52,455.32H433.3v-16.6h42.22
		V455.32z M452.59,475.69h-42.23v-16.66h42.23V475.69z M429.67,495.99h-42.23v-16.6h42.23V495.99z M410.37,499.71h42.23v16.65
		h-42.23V499.71z M387.28,537.42h40.13v15.95h-40.13V537.42z M410.29,557.22h17.13h24.97v16.81h-42.1V557.22z M429.47,595.67h-42.1
		v-17.8h42.1V595.67z M406.54,617.37h-42.1V599.5h42.1V617.37z M383.62,639h-42.1v-17.8h42.1V639z M387.35,621.2h42.1V639h-42.1
		V621.2z M410.29,599.5h42.1v17.86h-42.1V599.5z M433.21,577.86h42.1v17.8h-42.1V577.86z M456.14,599.5h42.1v17.86h-2.76
		c-4.94-3.8-10.27-7.45-16.17-10.84l-2.05-1.18l-2.03,1.18c-5.87,3.38-11.08,7.06-15.98,10.84h-3.11V599.5z M479.06,577.86h42.1
		v17.8h-42.1V577.86z M521.16,621.2V639h-3.51c-4.94-6.17-10.66-12.15-17.34-17.8H521.16z M544.09,642.83v17.86h-12.37
		c-3.06-6.02-6.72-12.02-11.06-17.86H544.09z M524.91,621.2h42.1V639h-42.1V621.2z M570.77,621.2h42.1V639h-42.1V621.2z
		 M589.95,617.37h-42.1V599.5h42.1V617.37z M570.77,577.86h42.1v17.8h-42.1V577.86z M589.95,574.02h-42.12v-16.81h19.56h22.55
		V574.02z M588.92,549.79h-15.73v-9.38h15.73V549.79z M587.65,415.71h-45.38v-14.18h45.38V415.71z M536.49,394.3v1.11h-15.92v-1.11
		h-18.52v-15.13h41.98v15.13H536.49z M524.99,359.14h19.04v16.35h-19.04V359.14z M544.04,335.37h-19.04v-16.34h19.04V335.37z
		 M544.04,355.46h-41.97v-16.4h41.97V355.46z M521.38,375.49h-42.25v-16.35h42.25V375.49z M498.46,355.46h-42.25v-16.4h42.25V355.46
		z M456.21,379.17h42.25v15.13h-12.71v1.11h-16.54v-1.11h-13.01V379.17z M434.11,412.15h-18.6V399.1h18.6V412.15z M452.59,435
		h-42.23v-15.6h42.23V435z M429.67,455.32h-42.23v-16.6h42.23V455.32z M406.74,435h-40.02v-15.6h40.02V435z M383.82,455.32h-17.09
		v-16.6h17.09V455.32z M406.74,475.69h-40.02v-16.66h40.02V475.69z M383.82,495.99h-17.09v-16.6h17.09V495.99z M406.74,516.36
		h-40.02v-16.65h40.02V516.36z M387.45,520.08h42.23v11.43h-42.23V520.08z M364.44,557.22h22.84h19.26v16.81h-42.1V557.22z
		 M383.62,595.67h-42.1v-17.8h42.1V595.67z M337.77,639h-16.89v-17.8h16.89V639z M360.7,660.69h-39.81v-17.86h39.81V660.69z
		 M337.77,682.32h-16.89v-17.8h16.89V682.32z M341.5,707.85h42.1v17.8h-42.1V707.85z M364.44,729.5h42.1v15.48h-42.1V729.5z
		 M387.35,725.65v-17.8h21.09c-0.81,6.5-1.16,12.5-1.21,17.8H387.35z M410.29,660.69v-17.86h23.65c-0.15,0.22-0.35,0.42-0.5,0.62
		l-0.12-0.08l-2.42,3.55c-2.1,3.06-4.02,6.13-5.76,9.23c-0.86,1.51-1.58,3.02-2.37,4.55H410.29z M433.21,639v-17.8h21.28
		c-6.71,5.65-12.47,11.61-17.43,17.8H433.21z M438.21,650.09c0.91-1.51,2.82-1.98,4.3-1.04c46.79,29.8,46.79,72.82,46.79,95.93
		h-6.23c0-23.41,0-62.59-43.86-90.5C437.74,653.55,437.28,651.57,438.21,650.09 M447.82,645.1c-1.41-0.99-1.78-2.99-0.81-4.44
		c0.96-1.46,2.91-1.85,4.34-0.86c46.84,32.64,50.35,62.84,50.35,105.17h-6.25C495.45,703.47,492.24,676.02,447.82,645.1
		 M455.9,635.91c-1.43-0.97-1.83-2.96-0.87-4.44c0.94-1.48,2.87-1.88,4.32-0.91c54.74,36.92,54.74,74.57,54.74,114.42h-6.24
		C507.85,706.89,507.83,670.93,455.9,635.91 M567.01,707.85v17.8h-19.87c-0.07-5.29-0.42-11.31-1.24-17.8H567.01z M547.83,729.5
		h42.1v15.48h-42.1V729.5z M570.77,707.85h42.1v17.8h-42.1V707.85z M593.7,729.5h39.81v15.48H593.7V729.5z M616.62,707.85h16.89
		v17.8h-16.89V707.85z M593.7,686.16h39.81v17.86H593.7V686.16z M616.62,664.53h16.89v17.8h-16.89V664.53z M593.7,642.83h39.81
		v17.86H593.7V642.83z M616.62,621.2h16.89V639h-16.89V621.2z M593.7,599.5h39.81v17.86H593.7V599.5z M616.62,577.86h16.89v17.8
		h-16.89V577.86z M593.7,574.02v-16.81h1.01h38.81v16.81H593.7z M516.24,303.76h27.8v11.58h-27.8V303.76z M521.38,335.37h-42.25
		v-16.34h42.25V335.37z M468.56,303.76h17.29v11.58h-17.29V303.76z M475.53,335.37h-42.25v-16.34h42.25V335.37z M410.06,359.14
		h19.63v16.35h-19.63V359.14z M410.36,379.17h42.25v15.13h-18.5v1.11h-18.6v-1.11h-5.14V379.17z M409.7,415.71h-42.97v-14.18h42.97
		V415.71z M366.73,534.46v-4.27v-10.12h17.09v11.43h-2.34v5.19h-14.76V534.46z M381.48,549.79h-16.03v-9.38h16.03V549.79z
		 M360.7,574.02h-39.81V557.2h39.81V574.02z M320.88,538.73h37.51v14.66h-37.51V538.73z M320.88,729.5h39.81v15.48h-39.81V729.5z
		 M633.51,553.39H596v-14.66h37.51V553.39z"/>
	<path class="st5" d="M836.22,29.49H118.1v231.44h718.15c-0.02-0.79-0.03-1.33-0.03-1.46V29.49z"/>
	<path class="st0" d="M512.24,60.05c-9.71-5.29-20.03-10.15-35.04-10.15h-0.02c-15.01,0-25.33,4.86-35.02,10.15
		c-9.71,5.29-42.81,9.7-42.81,9.7v138.82v2.81c0,0,30.57-3.28,40.59-7.95c11.41-5.31,22.96-6.99,32.7-7.08
		c1.56-0.02,7.48-0.02,9.03,0c9.76,0.07,21.34,1.75,32.77,7.08c10.02,4.67,40.59,7.95,40.59,7.95v-2.81V69.75
		C555.03,69.75,521.94,65.34,512.24,60.05"/>
	<path class="st5" d="M466.88,65.18c-0.15,0-14.99-1.26-27.7,6.82c-10.44,6.64-30.84,9.06-31.04,9.08
		c-0.57,0.05-1.09,0.34-1.45,0.79c-0.37,0.45-0.54,1.03-0.47,1.6c0.12,1.11,1.04,1.95,2.15,1.95l0.25-0.02
		c2.18-0.25,21.76-2.66,32.89-9.73c10.82-6.91,23.55-6.27,24.87-6.17c0.57,0.08,1.16-0.03,1.61-0.37c0.49-0.37,0.79-0.96,0.84-1.6
		c0.05-0.57-0.12-1.14-0.5-1.58C467.97,65.5,467.45,65.23,466.88,65.18"/>
	<path class="st5" d="M466.96,80.82c-0.61-0.07-14.96-1.75-27.76,6.37c-10.59,6.69-30.86,9.06-31.06,9.08
		c-1.18,0.13-2.03,1.21-1.9,2.4c0.12,1.09,1.03,1.92,2.15,1.92l0.24-0.02c0.2-0.02,21.36-2.4,32.89-9.71
		c11.51-7.29,24.76-5.75,24.92-5.71c1.24,0.17,2.27-0.76,2.4-1.9C468.99,82.06,468.15,80.97,466.96,80.82"/>
	<path class="st5" d="M467.06,96.47c-0.61-0.1-14.71-2.39-27.87,5.9c-10.62,6.71-30.86,9.06-31.06,9.09
		c-1.18,0.13-2.05,1.21-1.9,2.39c0.12,1.11,1.03,1.93,2.15,1.93l0.24-0.02c0.2-0.02,21.28-2.4,32.89-9.71
		c11.23-7.08,23.46-5.5,24.79-5.31c0.61,0.12,1.18-0.02,1.63-0.34c0.47-0.34,0.79-0.84,0.89-1.43c0.1-0.57-0.03-1.14-0.37-1.63
		C468.12,96.88,467.62,96.58,467.06,96.47"/>
	<path class="st5" d="M467.12,112.12c-1.5-0.3-14.91-2.69-27.9,5.45c-10.34,6.47-30.22,8.97-31.07,9.09
		c-0.59,0.07-1.11,0.35-1.46,0.81c-0.35,0.45-0.52,1.03-0.45,1.58c0.12,1.11,1.04,1.93,2.15,1.93l0.25-0.02
		c0.2-0.02,21.21-2.4,32.87-9.71c11.66-7.31,24.2-4.99,24.71-4.89c0.57,0.15,1.13,0.05,1.61-0.25c0.5-0.3,0.86-0.82,0.99-1.4
		c0.12-0.57,0.02-1.14-0.3-1.63C468.21,112.59,467.7,112.25,467.12,112.12"/>
	<path class="st5" d="M467.23,127.78c-1.46-0.37-14.64-3.36-28.02,4.98c-10.4,6.49-30.23,8.99-31.07,9.09
		c-0.59,0.07-1.09,0.35-1.46,0.81c-0.35,0.47-0.52,1.03-0.44,1.6c0.12,1.09,1.04,1.92,2.15,1.92h0.25
		c0.86-0.12,21.43-2.59,32.87-9.73c12.08-7.53,24.47-4.49,24.64-4.45c1.18,0.3,2.34-0.39,2.64-1.55
		C469.09,129.27,468.39,128.1,467.23,127.78"/>
	<path class="st5" d="M467.35,143.44c-0.15-0.05-13.83-4.37-28.13,4.5c-10.12,6.27-28.94,8.81-31.07,9.09
		c-0.59,0.05-1.09,0.34-1.46,0.81c-0.35,0.45-0.52,1.03-0.45,1.58c0.12,1.11,1.04,1.93,2.15,1.93l0.27-0.02
		c0.86-0.1,21.34-2.57,32.86-9.71c12.15-7.55,24.05-4.18,24.5-4.05c0.54,0.18,1.13,0.13,1.65-0.12c0.52-0.27,0.94-0.74,1.11-1.31
		C469.11,145.02,468.48,143.8,467.35,143.44"/>
	<path class="st5" d="M467.44,159.11c-0.13-0.05-13.61-5.01-28.22,4.02c-10.42,6.44-30.25,8.99-31.09,9.09
		c-0.59,0.08-1.09,0.37-1.45,0.82c-0.37,0.45-0.52,1.03-0.45,1.58c0.12,1.11,1.04,1.93,2.15,1.93l0.25-0.02
		c0.86-0.1,21.29-2.57,32.86-9.71c12.54-7.73,24.34-3.68,24.47-3.63c0.54,0.19,1.14,0.15,1.66-0.1c0.52-0.24,0.91-0.67,1.11-1.21
		C469.14,160.78,468.55,159.53,467.44,159.11"/>
	<path class="st5" d="M439.22,178.32c-10.17,6.25-28.96,8.82-31.11,9.11c-1.18,0.13-2.03,1.23-1.88,2.4
		c0.13,1.09,1.04,1.92,2.32,1.92h0.02l-0.03-1.01l0.05,0.99h0.08c2.2-0.29,21.73-2.89,32.82-9.71c12.22-7.5,23.18-3.68,24.35-3.23
		c0.54,0.22,1.11,0.24,1.66,0c0.54-0.22,0.96-0.62,1.18-1.18c0.22-0.52,0.24-1.13,0-1.66c-0.2-0.52-0.62-0.94-1.14-1.16
		C467,174.55,454.03,169.21,439.22,178.32"/>
	<path class="st5" d="M487.89,69.51c1.43-0.1,14.17-0.74,24.97,6.15c11.13,7.09,30.71,9.48,32.94,9.73l0.2,0.02
		c1.11,0,2.03-0.82,2.15-1.93c0.07-0.57-0.08-1.14-0.47-1.6c-0.35-0.45-0.87-0.74-1.45-0.79c-0.2-0.03-20.52-2.39-31.04-9.09
		c-12.71-8.07-27.53-6.82-27.68-6.81c-0.59,0.05-1.11,0.32-1.48,0.76c-0.37,0.45-0.55,1.01-0.49,1.58c0.03,0.66,0.35,1.24,0.84,1.61
		C486.83,69.47,487.4,69.61,487.89,69.51"/>
	<path class="st5" d="M546.24,96.27c-0.2-0.02-20.45-2.39-31.04-9.08c-12.84-8.13-27.18-6.45-27.78-6.37
		c-1.18,0.15-2.02,1.24-1.88,2.42c0.13,1.14,1.16,2.02,2.44,1.88c0.13-0.02,13.39-1.56,24.89,5.71c11.51,7.31,32.02,9.65,32.86,9.73
		l0.29,0.02c1.11,0,2.03-0.82,2.15-1.92C548.29,97.48,547.43,96.4,546.24,96.27"/>
	<path class="st5" d="M546.24,111.46c-0.2-0.02-20.44-2.39-31.06-9.09c-13.16-8.27-27.26-5.98-27.85-5.9
		c-0.57,0.1-1.08,0.42-1.4,0.89c-0.35,0.47-0.49,1.04-0.39,1.61c0.1,0.59,0.42,1.09,0.89,1.43c0.45,0.32,1.04,0.45,1.61,0.35
		c1.36-0.2,13.56-1.78,24.81,5.29c11.58,7.29,32.69,9.7,32.86,9.71l0.29,0.03c1.11,0,2.03-0.84,2.15-1.93
		C548.29,112.67,547.43,111.59,546.24,111.46"/>
	<path class="st5" d="M546.23,126.65c-0.84-0.1-20.71-2.62-31.04-9.09c-12.99-8.13-26.42-5.73-27.93-5.43
		c-0.57,0.12-1.06,0.45-1.38,0.94c-0.32,0.49-0.42,1.06-0.3,1.63c0.13,0.59,0.49,1.09,0.97,1.4c0.49,0.3,1.08,0.39,1.6,0.27
		c0.52-0.1,13.04-2.45,24.72,4.87c11.66,7.31,32.69,9.7,32.86,9.71l0.29,0.02c1.11,0,2.03-0.82,2.15-1.92
		c0.07-0.57-0.08-1.14-0.45-1.6C547.35,127,546.83,126.72,546.23,126.65"/>
	<path class="st5" d="M546.25,141.84c-0.82-0.1-20.67-2.6-31.08-9.09c-13.36-8.34-26.55-5.34-28.03-4.97
		c-1.14,0.32-1.83,1.5-1.55,2.66c0.3,1.16,1.43,1.85,2.67,1.55c0.12-0.03,12.54-3.08,24.62,4.45c11.45,7.14,32,9.61,32.94,9.73h0.17
		c1.13,0,2.05-0.82,2.17-1.9c0.07-0.59-0.1-1.14-0.45-1.61C547.36,142.19,546.83,141.91,546.25,141.84"/>
	<path class="st5" d="M546.22,157.02c-2.12-0.27-20.92-2.81-31.04-9.08c-14.32-8.87-28.02-4.55-28.13-4.5
		c-1.13,0.35-1.78,1.58-1.43,2.72c0.18,0.55,0.59,1.03,1.11,1.29c0.5,0.25,1.09,0.3,1.6,0.13c0.52-0.15,12.39-3.51,24.55,4.03
		c11.51,7.14,32,9.61,32.94,9.73h0.18c1.11,0,2.03-0.82,2.15-1.92c0.07-0.57-0.08-1.14-0.45-1.6
		C547.35,157.38,546.83,157.09,546.22,157.02"/>
	<path class="st5" d="M546.25,172.23c-0.82-0.1-20.66-2.66-31.08-9.09c-14.6-9.02-28.1-4.08-28.22-4.02
		c-1.13,0.4-1.7,1.65-1.29,2.76c0.18,0.54,0.59,0.98,1.09,1.23c0.52,0.25,1.14,0.29,1.68,0.08c0.12-0.03,11.93-4.07,24.45,3.63
		c11.58,7.16,32,9.63,32.92,9.73l0.18,0.02c1.13,0,2.05-0.84,2.17-1.92c0.07-0.59-0.1-1.14-0.45-1.61
		C547.36,172.58,546.83,172.29,546.25,172.23"/>
	<path class="st5" d="M546.23,187.42c-2.12-0.27-20.91-2.86-31.08-9.11c-14.79-9.09-27.76-3.76-28.28-3.53
		c-0.54,0.22-0.96,0.64-1.18,1.18c-0.24,0.54-0.22,1.13-0.02,1.65c0.24,0.55,0.66,0.96,1.19,1.19c0.54,0.22,1.13,0.22,1.65,0
		c1.21-0.45,12.17-4.27,24.37,3.23c11.09,6.82,30.64,9.43,32.82,9.71l0.15-0.99l-0.13,0.99l0.27,0.02c1.09,0,2.03-0.82,2.15-1.92
		C548.3,188.64,547.44,187.57,546.23,187.42"/>
	<path class="st0" d="M378,224.67l18.2-13.29V70.88l-18.49,15.8c0.05,0.37,0.22,0.72,0.2,1.11L378,224.67z"/>
	<path class="st0" d="M576.65,86.63l-18.47-15.76v140.5l18.2,13.29l0.07-136.94C576.45,87.36,576.6,87,576.65,86.63"/>
	<path class="st0" d="M463.98,220.02c3.23-3.7,7.8-5.65,13.21-5.65c5.41,0,9.98,1.95,13.23,5.65c2.27,2.59,3.75,5.6,4.45,9.08h80.33
		l-19.44-14.05l-0.54-0.05c-1.28-0.13-31.31-3.39-41.66-8.22c-9.78-4.57-20.72-6.87-32.52-6.87h-7.68c-11.81,0-22.76,2.3-32.52,6.87
		c-10.35,4.82-40.4,8.08-41.66,8.22l-0.54,0.05l-19.45,14.05h80.33C460.21,225.61,461.69,222.6,463.98,220.02"/>
	<path class="st1" d="M484.21,239.61l0.45-2.55c0.27-2.3,0.17-7.39-2.2-10.08c-1.21-1.38-2.92-2.05-5.26-2.05
		c-2.35,0-4.07,0.67-5.28,2.05c-2.37,2.69-2.47,7.78-2.2,10.1l0.44,2.54h-102.8V87.65c0.03-1.66,1.39-3.01,3.06-3.01
		c0.86,0,1.61,0.34,2.18,0.91c0.57,0.59,0.89,1.36,0.87,2.18l0.08,145.83h89.95c0.1-3.34,0.82-7.21,3.82-10.6
		c2.39-2.74,5.71-4.13,9.86-4.13c4.17,0,7.48,1.4,9.88,4.13c2.99,3.4,3.71,7.26,3.81,10.6h89.96l0.05-145.83
		c0-0.82,0.3-1.6,0.87-2.18c0.57-0.57,1.33-0.91,2.15-0.91c1.7,0,3.08,1.34,3.09,3.01v151.96H484.21z"/>
	<path class="st0" d="M270.19,151.29c0.02,0,0.02,0.02,0.03,0.03l-0.02-0.03H270.19"/>
	<path class="st1" d="M242.3,121.73c-3.97,0.07-6.92,1.04-8.77,2.91c-1.9,1.95-1.98,5.28-1.98,5.31l0.08,2.72
		c0.12,1.34,0.3,2.71,0.52,4.03l0.22,1.14c0,0.05,0.29,1.97,0.89,3.36l0.42,0.82c0.35,0.69,0.81,1.41,1.39,2.2
		c1.87,2.55,4.24,4.37,7.23,5.55c2.99-1.18,5.36-2.99,7.24-5.55c0.57-0.77,1.01-1.5,1.38-2.2l0.45-0.86
		c0.59-1.38,0.87-3.28,0.87-3.29l0.22-1.18c0.22-1.33,0.4-2.69,0.52-4.05c0.03-0.35,0.07-0.69,0.08-1.03v-1.68
		c0-0.13-0.12-3.39-2-5.31C249.24,122.77,246.3,121.79,242.3,121.73"/>
	<path class="st1" d="M220.14,157.18c0,0,1.16,1.04,2.02-0.12c0.86-1.16,5.6-7.43,6.76-8.44l0.39-0.39
		c0.86-1.43,1.87-2.77,3.14-3.95c-0.07-0.1-0.1-0.2-0.17-0.3c-1.23,0.77-4.2,2.57-7.61,4.3c0.05,0.07,0.07,0.12,0.12,0.19
		l-6.77,4.76c0,0-1.08,0.86,0.02,1.87c0,0-4.62,7.6-8.25,9.53c-0.71,0.37-0.64,1.29-0.13,1.76c0.5,0.49-2.05,7.03-6.69,7.29
		c0,0,3.61,1.19,8.86-5.46c0,0,2.18,0.45,3.13-1.55C215.87,164.69,218.56,157.73,220.14,157.18"/>
	<path class="st1" d="M212.57,107.88c0,0-0.37,1.23,0.27,1.5c3.23,1.33,8.15,5.33,8.15,5.33c-0.84,0.94,0.13,1.58,0.13,1.58
		l5.5,5.73c-1.19,1.63,2.64,4.2,2.64,4.2l0.49,0.69c0.3-1.11,0.92-2.5,2.17-3.78l-1.81-1.58c-1.06-0.76-4.94-7.93-5.78-8.86
		c-0.82-0.91-1.71,0.07-1.71,0.07c-1.38-0.34-4.91-3.73-5.87-5.33c-0.98-1.63-3.28-0.69-3.28-0.69c-2.97-3.13-5.83-1.09-5.83-1.09
		C211.91,105.57,212.57,107.88,212.57,107.88"/>
	<path class="st1" d="M229.64,98.14c1.34,1.87,3.31,5.38,4.12,6.86c0.49-0.66,1.03-1.24,1.63-1.76c-1.73-2.99-9.8-15.61-22.15-16.03
		h-0.29C222.35,89.12,228.3,96.26,229.64,98.14"/>
	<path class="st1" d="M251.35,105.85c0.84-2.08,2.54-6.15,3.8-7.9c1.34-1.88,7.29-9.03,16.69-10.94h-0.29
		c-11.88,0.4-20.17,12.67-22.4,16.39c0.32,0.25,0.62,0.49,0.92,0.79C250.56,104.69,250.98,105.27,251.35,105.85"/>
	<path class="st1" d="M266.89,188.01c0.76-0.18,1.33-1.04,0.86-1.81c-2.47-3.9-2.77-13.92-2.77-13.92c1.63-0.37,1.06-1.8,1.06-1.8
		l-3.98-8.44c1.36-0.42,1.87-1.24,0.24-3.43c-1.88-2.5-6.59-6.81-7.81-7.8c-0.82-1.75-1.97-3.36-3.34-4.79
		c-2.15,2.77-4.79,4.81-8.18,6.1l-0.64,0.24l-0.62-0.24c-3.5-1.33-6.25-3.43-8.44-6.35c-1.51,1.48-2.72,3.19-3.6,5.04l-0.27,0.66
		c-1.75,1.53-5.41,4.96-7.04,7.14c-1.63,2.18-1.14,3.01,0.22,3.43l-3.98,8.44c0,0-0.57,1.43,1.06,1.8c0,0-0.29,10.02-2.76,13.92
		c-0.49,0.77,0.08,1.63,0.86,1.81c0.76,0.19,1.9,8-2.49,10.86c0,0,4.2-0.86,5.63-10.29c0,0,2.37-0.76,2.18-3.24
		c-0.19-2.47-1.43-10.76-0.19-12.18c0,0,1.71,0.37,1.9-1.24c0.12-0.92,0.54-4.17,0.97-7.09l1.09-1.71
		c-0.02,0.49-0.02,0.77-0.02,0.79v0.05v1.58v2.79v1.6v2.79v1.58v0.08c-0.02,0.07-0.08,1.09-0.03,2.71l0.07,1.6
		c0.07,0.84,0.15,1.76,0.29,2.77l0.25,1.6c0.17,0.91,0.35,1.82,0.6,2.79l0.47,1.6c1.82,5.85,5.48,12.25,13.01,15.97
		c0.07,0.03,0.35,0.05,0.79-0.08c7.45-3.68,11.19-10.05,13.09-15.88l0.5-1.6c0.25-0.96,0.47-1.88,0.64-2.79l0.3-1.6
		c0.15-1.01,0.25-1.93,0.34-2.77l0.1-1.6c0.08-1.65,0.03-2.71,0.03-2.74v-1.63v-2.79v-1.6v-2.79v-1.58v-0.13
		c0-0.02-0.03-0.72-0.08-1.65c0,0.02,0,0.03,0.02,0.03l1.66,2.62c0.44,2.92,0.86,6.17,0.96,7.09c0.2,1.61,1.92,1.24,1.92,1.24
		c1.23,1.43,0,9.71-0.2,12.18c-0.18,2.49,2.2,3.24,2.2,3.24c1.43,9.43,5.63,10.29,5.63,10.29
		C264.97,196.01,266.13,188.19,266.89,188.01"/>
	<path class="st1" d="M274.97,166.39c0.5-0.49,0.57-1.39-0.13-1.78c-3.63-1.92-8.25-9.51-8.25-9.51c1.08-1.01,0.02-1.87,0.02-1.87
		l-6.79-4.76c0.1-0.1,0.15-0.2,0.22-0.32c-3.65-1.87-6.67-3.75-7.61-4.34c0,0,0,0-0.02,0c-0.13,0.27-0.24,0.52-0.4,0.77
		c0.79,0.77,1.51,1.58,2.13,2.45l1.56,1.58c1.16,0.99,5.9,7.26,6.76,8.44c0.86,1.16,2.02,0.12,2.02,0.12
		c1.58,0.55,4.27,7.5,5.21,9.5c0.94,2,3.11,1.55,3.11,1.55c5.26,6.64,8.87,5.46,8.87,5.46
		C277.02,173.42,274.47,166.88,274.97,166.39"/>
	<path class="st1" d="M267.87,107.41c-0.98,1.61-4.49,5.01-5.87,5.34c0,0-0.91-0.99-1.73-0.07c-0.82,0.91-4.71,8.1-5.76,8.84
		l-1.82,1.6c1.24,1.28,1.85,2.66,2.17,3.76l0.49-0.67c0,0,3.83-2.57,2.64-4.2l5.48-5.73c0,0,0.99-0.64,0.15-1.58
		c0,0,4.92-4.02,8.17-5.34c0.62-0.25,0.25-1.5,0.25-1.5s0.66-2.29,4.94-2.22c0,0-2.86-2.05-5.83,1.08
		C271.14,106.72,268.82,105.8,267.87,107.41"/>
	<path class="st1" d="M319.3,117.68c-0.87-0.57-5.28-3.21-13.55-3.53c-4.4-0.15-9.8,0.47-15.48,1.78l-0.92,0.23
		c-0.25,0.05-0.47,0.1-0.71,0.15l-1.55,0.39c-9.43,2.59-19.83,7.11-30.87,13.43v1.48l-0.1,1.28c-0.13,1.46-0.32,2.92-0.57,4.35
		l-0.22,1.16c0.02,0-0.3,2.18-1.06,3.97c2.59,1.58,9.28,5.5,14.25,7.03l1.68,0.44c3.21,0.84,7.24,1.41,12.86-0.55l1.06-0.44
		c3.31-1.31,7.08-3.6,11.21-6.77c0.13-0.1,8.94-5.48,11.21-7.16l0.91-0.69c2.37-1.83,4.47-3.76,6.22-5.75l0.72-0.84
		c3.88-4.74,4.87-8.05,5.13-9.26C319.55,118.26,319.6,117.95,319.3,117.68"/>
	<path class="st1" d="M242.24,119.48c6.67,0,9.26-1.73,9.26-6.13c0-3.81-1.56-10.62-9.23-11.06h-0.07
		c-7.66,0.44-9.24,7.24-9.24,11.06C232.97,117.75,235.57,119.48,242.24,119.48"/>
	<path class="st1" d="M214.4,149.84l1.7-0.45c4.96-1.51,11.66-5.45,14.24-7.01c-0.79-1.93-1.08-4.05-1.08-4.08l-0.2-1.04
		c-0.27-1.58-0.45-3.01-0.57-4.37l-0.1-1.21v-1.55c-11.04-6.3-21.43-10.82-30.89-13.41l-1.53-0.39c-0.24-0.05-0.45-0.1-0.69-0.15
		l-0.97-0.25c-5.08-1.16-9.9-1.78-14.07-1.78c-0.45,0-0.92,0-1.36,0.02c-8.35,0.32-12.77,3.01-13.58,3.55
		c-0.29,0.24-0.23,0.52-0.22,0.61c0.27,1.26,1.26,4.59,5.16,9.34l0.72,0.82c1.73,1.98,3.82,3.9,6.2,5.73l0.92,0.71
		c2.27,1.68,11.06,7.06,11.14,7.11c4.2,3.23,7.97,5.51,11.28,6.84l1.06,0.4C207.14,151.27,211.17,150.66,214.4,149.84"/>
	<path class="st0" d="M739.97,151.29c0,0,0.02,0.02,0.03,0.03l-0.02-0.03C739.97,151.29,739.97,151.29,739.97,151.29"/>
	<path class="st1" d="M712.07,121.73c-3.98,0.07-6.92,1.04-8.76,2.91c-1.92,1.95-2,5.28-2,5.31l0.07,2.72
		c0.13,1.34,0.32,2.71,0.54,4.03l0.22,1.14c0,0.05,0.29,1.97,0.89,3.36l0.42,0.82c0.35,0.69,0.81,1.41,1.39,2.2
		c1.87,2.55,4.24,4.37,7.23,5.55c3.01-1.18,5.36-2.99,7.24-5.55c0.57-0.77,1.01-1.5,1.38-2.2l0.45-0.86
		c0.59-1.38,0.87-3.28,0.87-3.29l0.22-1.18c0.22-1.33,0.4-2.69,0.52-4.05c0.03-0.35,0.07-0.69,0.08-1.03v-1.68
		c0-0.13-0.12-3.39-2-5.31C719.01,122.77,716.07,121.79,712.07,121.73"/>
	<path class="st1" d="M689.92,157.18c0,0,1.16,1.04,2.02-0.12c0.86-1.16,5.6-7.43,6.76-8.44l0.39-0.39
		c0.86-1.43,1.87-2.77,3.14-3.95c-0.07-0.1-0.1-0.2-0.17-0.3c-1.23,0.77-4.2,2.57-7.61,4.3c0.05,0.07,0.07,0.12,0.12,0.19
		l-6.77,4.76c0,0-1.08,0.86,0.02,1.87c0,0-4.62,7.6-8.25,9.53c-0.71,0.37-0.64,1.29-0.13,1.76c0.49,0.49-2.05,7.03-6.69,7.29
		c0,0,3.61,1.19,8.87-5.46c0,0,2.17,0.45,3.11-1.55C685.63,164.69,688.34,157.73,689.92,157.18"/>
	<path class="st1" d="M682.34,107.88c0,0-0.37,1.23,0.27,1.5c3.23,1.33,8.15,5.33,8.15,5.33c-0.84,0.94,0.15,1.58,0.15,1.58
		l5.48,5.73c-1.19,1.63,2.64,4.2,2.64,4.2l0.49,0.69c0.32-1.11,0.94-2.5,2.18-3.78l-1.83-1.58c-1.06-0.76-4.94-7.93-5.76-8.86
		c-0.82-0.91-1.71,0.07-1.71,0.07c-1.4-0.34-4.91-3.73-5.88-5.33c-0.96-1.63-3.26-0.69-3.26-0.69c-2.97-3.13-5.85-1.09-5.85-1.09
		C681.7,105.57,682.34,107.88,682.34,107.88"/>
	<path class="st1" d="M699.42,98.14c1.34,1.87,3.31,5.38,4.12,6.86c0.49-0.66,1.01-1.24,1.63-1.76
		c-1.75-2.99-9.81-15.61-22.15-16.03h-0.29C692.12,89.12,698.07,96.26,699.42,98.14"/>
	<path class="st1" d="M721.12,105.85c0.84-2.08,2.55-6.15,3.8-7.9c1.36-1.88,7.29-9.03,16.69-10.94h-0.29
		c-11.88,0.4-20.17,12.67-22.39,16.39c0.3,0.25,0.6,0.49,0.91,0.79C720.33,104.69,720.75,105.27,721.12,105.85"/>
	<path class="st1" d="M736.66,188.01c0.76-0.18,1.33-1.04,0.86-1.81c-2.47-3.9-2.77-13.92-2.77-13.92c1.63-0.37,1.06-1.8,1.06-1.8
		l-3.98-8.44c1.36-0.42,1.87-1.24,0.24-3.43c-1.88-2.5-6.59-6.81-7.81-7.8c-0.82-1.75-1.97-3.36-3.34-4.79
		c-2.15,2.77-4.81,4.81-8.18,6.1l-0.64,0.24l-0.62-0.24c-3.5-1.33-6.25-3.43-8.44-6.35c-1.51,1.48-2.72,3.19-3.6,5.04l-0.27,0.66
		c-1.75,1.53-5.41,4.96-7.04,7.14c-1.63,2.18-1.13,3.01,0.22,3.43l-3.98,8.44c0,0-0.57,1.43,1.06,1.8c0,0-0.29,10.02-2.77,13.92
		c-0.47,0.77,0.1,1.63,0.86,1.81c0.77,0.19,1.92,8-2.47,10.86c0,0,4.2-0.86,5.63-10.29c0,0,2.37-0.76,2.18-3.24
		c-0.2-2.47-1.43-10.76-0.2-12.18c0,0,1.73,0.37,1.92-1.24c0.1-0.92,0.52-4.17,0.97-7.09l1.09-1.71c-0.02,0.49-0.02,0.77-0.02,0.79
		v0.05v1.58v2.79v1.6v2.79v1.58v0.08c-0.02,0.07-0.08,1.09-0.05,2.71l0.08,1.6c0.07,0.84,0.15,1.76,0.29,2.77l0.25,1.6
		c0.17,0.91,0.35,1.82,0.6,2.79l0.47,1.6c1.8,5.85,5.48,12.25,12.99,15.97c0.08,0.03,0.37,0.05,0.81-0.08
		c7.45-3.68,11.19-10.05,13.09-15.88l0.5-1.6c0.27-0.96,0.47-1.88,0.64-2.79l0.29-1.6c0.17-1.01,0.27-1.93,0.34-2.77l0.12-1.6
		c0.08-1.65,0.03-2.71,0.03-2.74v-1.63v-2.79v-1.6v-2.79v-1.58v-0.13c0-0.02-0.03-0.72-0.08-1.65c0,0.02,0,0.03,0.02,0.03l1.65,2.62
		c0.45,2.92,0.87,6.17,0.99,7.09c0.18,1.61,1.9,1.24,1.9,1.24c1.23,1.43,0,9.71-0.2,12.18c-0.18,2.49,2.2,3.24,2.2,3.24
		c1.43,9.43,5.63,10.29,5.63,10.29C734.74,196.01,735.9,188.19,736.66,188.01"/>
	<path class="st1" d="M744.75,166.39c0.5-0.49,0.57-1.39-0.13-1.78c-3.63-1.92-8.25-9.51-8.25-9.51c1.08-1.01,0.02-1.87,0.02-1.87
		l-6.77-4.76c0.08-0.1,0.12-0.2,0.2-0.32c-3.65-1.87-6.69-3.75-7.61-4.34c-0.15,0.27-0.25,0.52-0.42,0.77
		c0.79,0.77,1.51,1.58,2.13,2.45l1.56,1.58c1.16,0.99,5.9,7.26,6.76,8.44c0.86,1.16,2.02,0.12,2.02,0.12
		c1.58,0.55,4.27,7.5,5.21,9.5c0.94,2,3.11,1.55,3.11,1.55c5.26,6.64,8.87,5.46,8.87,5.46C746.8,173.42,744.24,166.88,744.75,166.39
		"/>
	<path class="st1" d="M737.64,107.41c-0.98,1.61-4.49,5.01-5.88,5.34c0,0-0.89-0.99-1.71-0.07c-0.82,0.91-4.71,8.1-5.78,8.84
		l-1.8,1.6c1.23,1.28,1.85,2.66,2.17,3.76l0.49-0.67c0,0,3.83-2.57,2.64-4.2l5.48-5.73c0,0,0.99-0.64,0.15-1.58
		c0,0,4.92-4.02,8.15-5.34c0.64-0.25,0.27-1.5,0.27-1.5s0.66-2.29,4.94-2.22c0,0-2.86-2.05-5.83,1.08
		C740.92,106.72,738.6,105.8,737.64,107.41"/>
	<path class="st1" d="M789.07,117.68c-0.87-0.57-5.28-3.21-13.56-3.53c-4.39-0.15-9.78,0.47-15.46,1.78l-0.92,0.23
		c-0.24,0.05-0.49,0.1-0.71,0.15l-1.55,0.39c-9.43,2.59-19.83,7.11-30.87,13.43v1.48l-0.1,1.28c-0.13,1.46-0.32,2.92-0.57,4.35
		l-0.22,1.16c0.02,0-0.3,2.18-1.06,3.97c2.59,1.58,9.28,5.5,14.25,7.03l1.68,0.44c3.21,0.84,7.24,1.41,12.86-0.55l1.06-0.44
		c3.29-1.31,7.08-3.6,11.21-6.77c0.13-0.1,8.94-5.48,11.21-7.16l0.91-0.69c2.37-1.83,4.47-3.76,6.22-5.75l0.72-0.84
		c3.9-4.74,4.87-8.05,5.13-9.26C789.33,118.26,789.38,117.95,789.07,117.68"/>
	<path class="st1" d="M712.01,119.48c6.67,0,9.28-1.73,9.28-6.13c0-3.81-1.58-10.62-9.24-11.06h-0.07
		c-7.66,0.44-9.23,7.24-9.23,11.06C702.75,117.75,705.34,119.48,712.01,119.48"/>
	<path class="st1" d="M684.18,149.84l1.68-0.45c4.98-1.51,11.68-5.45,14.25-7.01c-0.81-1.93-1.09-4.05-1.09-4.08l-0.19-1.04
		c-0.29-1.58-0.47-3.01-0.59-4.37l-0.08-1.21l-0.02-1.55c-11.03-6.3-21.43-10.82-30.87-13.41l-1.55-0.39
		c-0.22-0.05-0.44-0.1-0.67-0.15l-0.97-0.25c-5.08-1.16-9.92-1.78-14.07-1.78c-0.47,0-0.92,0-1.38,0.02
		c-8.35,0.32-12.77,3.01-13.58,3.55c-0.29,0.24-0.22,0.52-0.2,0.61c0.25,1.26,1.24,4.59,5.16,9.34l0.71,0.82
		c1.73,1.98,3.82,3.9,6.22,5.73l0.91,0.71c2.29,1.68,11.08,7.06,11.16,7.11c4.2,3.23,7.97,5.51,11.26,6.84l1.08,0.4
		C676.92,151.27,680.93,150.66,684.18,149.84"/>
	<path class="st1" d="M862.24,249.25V5.01H92.11l0.02,243.98c-0.05,1.23-3.83,124.1,41.18,268.58
		c41.66,133.69,134.74,313.94,341.66,413.45l3.53,1.7l3.55-1.7C688.3,831.29,780.7,651.04,821.89,517.4
		C866.41,372.97,862.27,250.2,862.24,249.25 M836.33,250.92h-0.05c0.5,27.73,2.39,472.88-357.79,653.53
		C106.31,718.82,117.96,254.53,118.12,249.59V30.27h718.12h0.08V250.92z"/>
</g>
<polygon class="st5" points="1295.33,316.73 1160.86,316.73 1160.86,96.8 1101.97,96.8 1101.97,365.73 1295.33,365.73 "/>
<path class="st5" d="M1506.15,312.56v-88.9c0-44.41-32.54-69.9-89.28-69.9c-48.33,0-80.09,20.34-91.87,58.84l-0.42,1.39l46.54,16.18
	l0.47-1.48c6.82-21.22,21.28-31.99,43.01-31.99c22.05,0,34.19,11.05,34.19,31.15v17.45c-50.79-1.02-90.02,9.59-110.82,29.9
	c-11.42,11.12-17.2,24.84-17.2,40.78c0,33.54,21.45,53.57,57.36,53.57c28.9,0,53.43-11.16,71.19-32.34
	c0.46,11.63,1.35,19.75,2.92,27.34l0.25,1.21h60.31l-0.65-1.99C1507.94,350.79,1506.15,335.48,1506.15,312.56 M1448.79,280.27v28.22
	c-10.84,10.1-27.72,21.93-47.49,21.93c-15.13,0-22.8-6.39-22.8-18.99c0-6.83,2.2-12.32,6.68-16.78
	c9.73-9.66,30.23-14.37,62.63-14.37C1448.14,280.27,1448.46,280.27,1448.79,280.27"/>
<path class="st5" d="M1670.67,290.65c-6.82,19.84-23.1,32.17-42.55,32.17c-19.75,0-31.54-13.51-31.54-36.1V157.57h-57.36V290.9
	c0,49.24,25.98,78.64,69.52,78.64c28.13,0,50.56-12.6,63.83-35.65v31.83h55.46V157.57h-57.36V290.65z"/>
<path class="st5" d="M1820.07,232.66c6.83-19.85,23.1-32.17,42.55-32.17c19.75,0,31.54,13.49,31.54,36.09v129.15h57.34V232.41
	c0-49.24-25.98-78.65-69.5-78.65c-28.13,0-50.56,12.61-63.83,35.65v-31.83h-55.45v208.15h57.34V232.66z"/>
<path class="st5" d="M2177.44,296.14l0.3-1.46l-54.66-12.07l-0.28,1.56c-4.76,25.98-18.18,38.63-41.06,38.63
	c-29.64,0-45.96-21.73-45.96-61.16c0-39.44,16.32-61.17,45.96-61.17c22.87,0,36.3,12.65,41.06,38.65l0.28,1.55l54.66-12.07
	l-0.3-1.46c-9.28-45.96-45.05-73.4-95.7-73.4c-62.3,0-102.56,42.36-102.56,107.91c0,65.53,40.27,107.87,102.56,107.87
	C2132.39,369.53,2168.16,342.09,2177.44,296.14"/>
<path class="st5" d="M2299.4,369.53c48.07,0,79.97-22.45,92.23-64.92l0.44-1.49l-46.28-12.17l-0.39,1.48
	c-7.52,28.25-28.55,34.19-44.87,34.19c-27.58,0-43.92-17.85-47.35-51.67h138.03l0.1-1.41c2.85-41.76-5.45-73.38-24.68-93.97
	c-15.76-16.88-39.02-25.81-67.25-25.81c-63.04,0-102.18,41.64-102.18,108.64C2197.22,329.47,2235.41,369.53,2299.4,369.53
	 M2254.04,240c4.44-29.74,18.92-44.83,43.08-44.83c24.09,0,37.17,15.5,37.97,44.83H2254.04z"/>
<path class="st5" d="M2595.68,302.67c0-51.67-44.17-59.21-79.64-65.27c-23.72-4.04-44.2-7.54-44.2-23.24
	c0-13.09,10.8-20.89,28.86-20.89c14.79,0,33.99,4.57,41.5,26.33l0.46,1.3l47.75-11.33l-0.49-1.58
	c-11.1-34.72-43.06-53.85-89.97-53.85c-50.56,0-85.86,26.55-85.86,64.58c0,48.61,43.96,56.53,79.25,62.91
	c25.56,4.62,47.63,8.59,47.63,25.97c0,13.4-12.35,22.42-30.76,22.42c-25.69,0-40.86-11.17-46.38-34.15l-0.35-1.46l-54.22,12.03
	l0.33,1.49c8.73,39.12,44.99,61.58,99.47,61.58C2560.07,369.52,2595.68,342.04,2595.68,302.67"/>
<path class="st5" d="M2745.67,363.32l1.16-0.51l-10.38-42.34l-1.86,1.55c-4.37,3.65-10.1,5.74-15.74,5.74
	c-17.15,0-25.84-5.36-25.84-34.57v-90.79h45.59v-44.82H2693V96.79h-57.36v60.79h-30.38v44.82h30.38v92.69
	c0,52.88,22.35,74.45,77.12,74.45C2722,369.53,2737.23,367.15,2745.67,363.32"/>
<path class="st5" d="M2859.69,153.75c-62.3,0-102.55,42.36-102.55,107.91c0,65.53,40.25,107.87,102.55,107.87
	c62.32,0,102.56-42.34,102.56-107.87C2962.26,196.11,2922.01,153.75,2859.69,153.75 M2905.67,261.66
	c0,39.42-16.34,61.16-45.98,61.16c-29.64,0-45.96-21.73-45.96-61.16c0-39.44,16.32-61.17,45.96-61.17
	C2889.33,200.48,2905.67,222.22,2905.67,261.66"/>
<path class="st5" d="M3108.39,153.76c-28.13,0-50.56,12.6-63.81,35.65v-31.83h-55.46v208.15h57.34V232.66
	c6.82-19.85,23.12-32.17,42.57-32.17c19.73,0,31.52,13.49,31.52,36.09v129.15h57.36V232.41
	C3177.91,183.17,3151.93,153.76,3108.39,153.76"/>
<path class="st5" d="M1229.24,618.54h67.68c-5.89,30.69-31.5,48.96-68.85,48.96c-51.35,0-80.82-33.13-80.82-90.92
	c0-57.66,29.63-92.08,79.27-92.08c34.87,0,59.74,16.19,70,45.58l0.5,1.42l52.34-16.08l-0.57-1.55
	c-19.33-52-61.75-79.49-122.66-79.49c-85.44,0-140.63,55.83-140.63,142.2c0,85.44,55.05,140.63,140.24,140.63
	c81.73,0,130.53-49.52,130.53-132.47v-14.37h-127.03V618.54z"/>
<path class="st5" d="M1443.78,543.27v-42.83h-58.65v212.9h58.65V585.55c15.13-26.14,41.42-35.22,78.14-26.88l1.89,0.43v-61.38h-1.55
	C1487.03,497.73,1460.02,513.45,1443.78,543.27"/>
<path class="st5" d="M1724.8,658.94v-90.92c0-45.42-33.28-71.47-91.31-71.47c-49.43,0-81.93,20.81-93.95,60.16l-0.43,1.44
	l47.6,16.55l0.49-1.51c6.97-21.72,21.76-32.74,43.98-32.74c22.55,0,34.97,11.32,34.97,31.86v17.84
	c-51.96-1.1-92.07,9.81-113.34,30.58c-11.68,11.39-17.59,25.42-17.59,41.72c0,34.3,21.92,54.78,58.66,54.78
	c29.56,0,54.64-11.43,72.8-33.08c0.47,11.89,1.38,20.2,2.98,27.96l0.25,1.22h61.68l-0.66-2.03
	C1726.63,698.06,1724.8,682.41,1724.8,658.94 M1666.13,625.92v28.87c-11.09,10.33-28.35,22.42-48.57,22.42
	c-15.47,0-23.32-6.56-23.32-19.44c0-6.99,2.23-12.6,6.83-17.16c9.95-9.88,30.92-14.7,64.04-14.7H1666.13z"/>
<path class="st5" d="M2018.55,496.55c-30.96,0-56.6,14.59-70.88,40.18c-10.8-25.95-33.37-40.18-63.93-40.18
	c-28.77,0-51.71,12.88-65.28,36.46v-32.58h-56.71v212.9h58.65v-136.1c6.97-20.29,23.63-32.88,43.52-32.88
	c20.2,0,32.25,13.8,32.25,36.91v132.08h58.66v-136.1c6.97-20.29,23.63-32.88,43.52-32.88c20.2,0,32.23,13.8,32.23,36.91v132.08
	h58.66V576.98C2089.26,526.61,2062.84,496.55,2018.55,496.55"/>
<path class="st5" d="M2379.58,496.55c-30.96,0-56.6,14.59-70.88,40.18c-10.8-25.95-33.37-40.18-63.93-40.18
	c-28.77,0-51.71,12.88-65.28,36.46v-32.58h-56.71v212.9h58.65v-136.1c6.97-20.29,23.65-32.88,43.54-32.88
	c20.18,0,32.23,13.8,32.23,36.91v132.08h58.65v-136.1c6.99-20.29,23.65-32.88,43.54-32.88c20.2,0,32.23,13.8,32.23,36.91v132.08
	h58.66V576.98C2450.28,526.61,2423.85,496.55,2379.58,496.55"/>
<path class="st5" d="M2667.83,658.94v-90.92c0-45.42-33.28-71.47-91.29-71.47c-49.45,0-81.93,20.81-93.95,60.16l-0.45,1.44
	l47.6,16.55l0.49-1.51c6.97-21.72,21.76-32.74,43.98-32.74c22.55,0,34.97,11.32,34.97,31.86v17.84
	c-51.96-1.08-92.07,9.81-113.34,30.58c-11.68,11.39-17.59,25.42-17.59,41.72c0,34.3,21.94,54.78,58.66,54.78
	c29.57,0,54.66-11.43,72.8-33.08c0.48,11.89,1.38,20.2,3,27.96l0.25,1.22h61.66l-0.65-2.03
	C2669.68,698.06,2667.83,682.41,2667.83,658.94 M2609.16,625.92v28.87c-11.07,10.33-28.35,22.42-48.57,22.42
	c-15.47,0-23.32-6.56-23.32-19.44c0-6.99,2.25-12.6,6.83-17.16c9.97-9.88,30.92-14.7,64.05-14.7H2609.16z"/>
<path class="st5" d="M2769.71,543.27v-42.83h-58.66v212.9h58.66V585.55c15.13-26.14,41.4-35.22,78.14-26.88l1.89,0.43v-61.38h-1.55
	C2812.93,497.73,2785.95,513.45,2769.71,543.27"/>
<polygon class="st5" points="1180.78,964.93 1099.54,964.93 1099.54,842.32 1180.78,842.32 1180.78,863.49 1125.2,863.49 
	1125.2,893.05 1177.63,893.05 1177.63,912.78 1125.2,912.78 1125.2,943.69 1180.78,943.69 "/>
<path class="st5" d="M1223.99,929.94c1.62,10.27,11.98,16.4,25.92,16.4c13.67,0,23.03-6.64,23.03-15.65
	c0-8.05-5.79-12.65-21.17-15.78l-12.91-2.55c-24.46-4.84-36.44-16.58-36.44-34.84c0-22.43,19.53-37.28,46.82-37.28
	c28.62,0,46.62,14.94,47.05,37.44h-24.21c-0.86-10.45-9.94-16.75-22.84-16.75c-12.67,0-21.17,5.97-21.17,14.98
	c0,7.54,5.95,12.21,20.39,15.11l13.02,2.64c25.9,5.19,37.21,15.62,37.21,34.24c0,23.96-18.79,39.17-49.44,39.17
	c-29.23,0-48.69-14.02-49.46-37.13H1223.99z"/>
<polygon class="st5" points="1348.8,964.93 1348.8,863.49 1313.38,863.49 1313.38,842.32 1409.98,842.32 1409.98,863.49 
	1374.47,863.49 1374.47,964.93 "/>
<path class="st5" d="M1417.65,952.28c0-7.65,6.04-13.67,13.69-13.67c7.55,0,13.67,6.03,13.67,13.67c0,7.57-6.12,13.67-13.67,13.67
	C1423.69,965.95,1417.65,959.85,1417.65,952.28"/>
<polygon class="st5" points="1529.71,865.86 1529.19,865.86 1497.93,887.11 1497.93,864.35 1529.62,842.33 1555.11,842.33 
	1555.11,964.94 1529.71,964.94 "/>
<path class="st5" d="M1586.25,931.73c0-16.15,11.91-28.03,28.65-31.27v-0.49c-14.45-3.49-24.23-14.03-24.23-27.38
	c0-19.02,18.69-32.97,45.27-32.97c26.61,0,45.22,13.85,45.22,33.04c0,13.18-9.7,23.74-24.05,27.3v0.49
	c16.75,3.31,28.54,15.2,28.54,31.35c0,21.24-20.46,35.86-49.71,35.86C1606.64,967.66,1586.25,952.97,1586.25,931.73 M1658.81,929.87
	c0-11.07-9.34-18.95-22.86-18.95c-13.51,0-22.94,7.95-22.94,18.95c0,11.1,9.43,19.09,22.94,19.09
	C1649.47,948.97,1658.81,940.97,1658.81,929.87 M1655.84,875.22c0-10.1-8.32-17.09-19.9-17.09c-11.63,0-19.86,6.99-19.86,17.09
	c0,10.01,8.23,17,19.86,17C1647.52,892.23,1655.84,885.24,1655.84,875.22"/>
<path class="st5" d="M1765.02,942.43h-61.02V921c10.7-20.3,24.05-41.7,49.2-78.67h36.19v79.62h16.15v20.48h-16.15v22.52h-24.37
	V942.43z M1726.36,922.64h39.15v-61.95h-0.49c-17.77,25.56-28.89,43-38.66,61.25V922.64z"/>
<path class="st5" d="M1822.35,904.63c0-40.63,19.37-65.09,51.22-65.09c23.81,0,42.16,13.94,45.56,34.17h-25.34
	c-2.89-8.77-10.19-13.87-20.3-13.87c-17.84,0-26.67,17.26-26.59,44.09h0.51c4.75-11.38,16.84-19.68,33.38-19.68
	c23.7,0,39.94,16.89,39.94,39.92c0,25.39-19.88,43.51-47.24,43.51C1844.18,967.66,1822.35,946.93,1822.35,904.63 M1895.77,925.25
	c0-12.91-9.5-22.06-22.35-22.06c-13,0-22.68,9.08-22.68,21.55c0,12.67,9.87,22.52,22.44,22.52
	C1885.73,947.26,1895.67,937.59,1895.77,925.25"/>
</svg>
